PathFileType	4	(x/y/z)	A01_FAST_T0022.trc
DataRate	CameraRate	NumFrames	NumMarkers	Units	OrigDataRate	OrigDataStartFrame	OrigNumFrames
240	240	5	48	mm	240	1	299
Frame#	Time	TOP_HEAD			R_AC			L_AC			R_ASIS			L_ASIS			R_PSIS			L_PSIS			SACRAL			L_IC			R_IC			L_GT			R_GT			R_LAT_KNEE			R_MED_KNEE			L_MED_KNEE			L_LAT_KNEE			R_TOE			L_TOE			R_1ST_MET			L_1ST_MET			L_5TH_MET			R_5TH_MET			R_LAT_ANK			R_MED_ANK			L_MED_ANK			L_LAT_ANK			L_HEEL_SUP			R_HEEL_SUP			L_HEEL_LAT			R_HEEL_LAT			L_HEEL_MED			R_HEEL_MED			R_LL_PROX_POST			R_LL_PROX_ANT			R_LL_DIST_ANT			R_LL_DIST_POST			R_THIGH_PROX_POST			R_THIGH_PROX_ANT			R_THIGH_DIST_ANT			R_THIGH_DIST_POST			L_PROS_PROX_ANT			L_PROS_PROX_POST			L_PROS_DIST_POST			L_PROS_DIST_ANT			L_THIGH_PROX_ANT			L_THIGH_PROX_POST			L_THIGH_DIST_POST			L_THIGH_DIST_ANT			
		X1	Y1	Z1	X2	Y2	Z2	X3	Y3	Z3	X4	Y4	Z4	X5	Y5	Z5	X6	Y6	Z6	X7	Y7	Z7	X8	Y8	Z8	X9	Y9	Z9	X10	Y10	Z10	X11	Y11	Z11	X12	Y12	Z12	X13	Y13	Z13	X14	Y14	Z14	X15	Y15	Z15	X16	Y16	Z16	X17	Y17	Z17	X18	Y18	Z18	X19	Y19	Z19	X20	Y20	Z20	X21	Y21	Z21	X22	Y22	Z22	X23	Y23	Z23	X24	Y24	Z24	X25	Y25	Z25	X26	Y26	Z26	X27	Y27	Z27	X28	Y28	Z28	X29	Y29	Z29	X30	Y30	Z30	X31	Y31	Z31	X32	Y32	Z32	X33	Y33	Z33	X34	Y34	Z34	X35	Y35	Z35	X36	Y36	Z36	X37	Y37	Z37	X38	Y38	Z38	X39	Y39	Z39	X40	Y40	Z40	X41	Y41	Z41	X42	Y42	Z42	X43	Y43	Z43	X44	Y44	Z44	X45	Y45	Z45	X46	Y46	Z46	X47	Y47	Z47	X48	Y48	Z48	

1	0	-706.56	1779.6	297.9	-878.47	1560.9	568.23	-965.51	1564	116.04	-929.55	1093.5	547.09	-917.4	1032.7	195.61	-1141.8	1107.2	410.69	-1127.9	1091.4	282.24	-1153.6	1071.2	345.57	-932.47	1160.6	149.44	-954.49	1214.5	549.28	-969	950.57	152.09	-1013.2	991.84	583.63	-1138.1	600.68	518.44	NaN	NaN	NaN	-803.25	575.36	379.04	-827.84	575.51	220.25	-1086.6	64.593	428.67	-448.93	200.19	263.01	-1164	53.641	381.45	-511.21	139.86	316.73	-531.46	119.07	190.66	-1194.4	47.794	514.29	-1285.2	152.64	485.32	-1273.5	156.62	384.21	-661.06	159.63	304.98	-684.73	142.31	237.82	-737.94	55.353	276.44	-1388	146.92	428.58	-715.4	32.704	244.28	-1387.7	121.63	461.93	-706.74	36.281	308.47	-1381.9	117.69	400.81	-1275.4	453.7	515.51	-1210.2	428.02	535.51	-1225.6	355.93	517.75	-1278	371.09	505.53	-1092	869.04	559.61	-1019.9	867.42	569.5	-1042.4	779.09	558.67	-1110.3	781.96	547.33	-751.22	519.42	230.75	-800.59	496.11	219.91	-779.84	436.44	225.93	-735.67	465.2	237.01	-857.44	833.09	197.87	-920.19	814.44	168.18	-886.53	747.73	186.04	-830.48	765.61	212.4
2	0.0041806	-700.77	1778.2	297.17	-872.65	1559.7	567.64	-959.89	1562.5	115.54	-924.13	1092.2	546.91	-911.32	1031.3	195.31	-1136.1	1106	409.99	-1122.1	1089.9	281.6	-1147.9	1069.8	344.93	-926.1	1159	149.06	-949.05	1213.1	548.82	-962.83	949.06	151.86	-1008	990.86	583.36	-1134.6	600.42	518.25	NaN	NaN	NaN	-797.2	574.16	379.56	-821.91	574.08	220.78	-1086.6	64.595	428.65	-440.57	201.57	263.38	-1163.9	53.531	381.34	-502.05	140.99	317.43	-522.68	119.95	191.11	-1194.2	47.872	514.27	-1284.5	153.33	485.27	-1272.6	157.16	384.08	-652.22	159.39	305.56	-675.88	141.86	238.39	-728.46	54.656	277.16	-1387.4	148.12	428.32	-705.86	32.227	244.89	-1387.1	122.79	461.77	-697.16	35.85	309.06	-1381.3	118.81	400.66	-1272.8	454.31	515.2	-1207.8	428.25	535.3	-1223.7	356.25	517.56	-1275.9	371.72	505.3	-1087.2	868.53	559.31	-1015.2	866.6	569.32	-1038	778.34	558.45	-1105.9	781.53	547.05	-744.92	518.51	231.24	-794.12	494.9	220.45	-772.99	435.36	226.47	-729	464.42	237.51	-851.27	831.66	197.89	-913.99	812.96	168.22	-880.39	746.3	186.24	-824.35	764.19	212.6
3	0.0083613	-694.72	1776.7	296.4	-866.58	1558.4	567.02	-954.02	1560.9	115.02	-918.46	1090.9	546.71	-904.98	1029.8	195	-1130.2	1104.6	409.26	-1116	1088.4	280.94	-1142	1068.4	344.25	-919.51	1157.3	148.68	-943.36	1211.7	548.35	-956.39	947.5	151.63	-1002.5	989.84	583.09	-1130.9	600.16	518.05	NaN	NaN	NaN	-790.88	572.91	380.07	-815.72	572.6	221.32	-1086.6	64.595	428.63	-431.96	202.81	263.75	-1163.8	53.418	381.23	-492.67	142.01	318.13	-513.69	120.73	191.57	-1194	47.952	514.25	-1283.6	154.06	485.22	-1271.6	157.74	383.94	-643.17	159.09	306.14	-666.81	141.34	238.96	-718.78	53.965	277.92	-1386.7	149.38	428.05	-696.15	31.746	245.54	-1386.4	124.02	461.6	-687.39	35.401	309.68	-1380.7	119.99	400.5	-1270.1	454.93	514.89	-1205.3	428.48	535.09	-1221.6	356.58	517.36	-1273.6	372.38	505.07	-1082.2	868	558.99	-1010.3	865.75	569.13	-1033.5	777.57	558.23	-1101.3	781.07	546.75	-738.36	517.54	231.74	-787.38	493.64	220.98	-765.89	434.23	227.02	-722.08	463.58	238.01	-844.82	830.19	197.93	-907.51	811.44	168.26	-873.98	744.83	186.46	-817.95	762.72	212.82
4	0.012542	-688.46	1775.1	295.61	-860.3	1557.2	566.37	-947.94	1559.2	114.45	-912.59	1089.5	546.51	-898.41	1028.3	194.69	-1124.1	1103.3	408.51	-1109.7	1086.8	280.25	-1135.8	1066.9	343.54	-912.76	1155.6	148.29	-937.46	1210.3	547.85	-949.72	945.9	151.39	-996.88	988.78	582.81	-1127.1	599.88	517.86	NaN	NaN	NaN	-784.33	571.64	380.58	-809.31	571.09	221.85	-1086.5	64.592	428.6	-423.19	203.87	264.13	-1163.7	53.305	381.12	-483.17	142.88	318.81	-504.58	121.39	192.04	-1193.8	48.033	514.23	-1282.8	154.82	485.17	-1270.6	158.34	383.81	-633.98	158.72	306.73	-657.64	140.76	239.55	-709.03	53.292	278.7	-1386	150.7	427.8	-686.39	31.269	246.2	-1385.7	125.3	461.43	-677.55	34.939	310.32	-1380.1	121.23	400.34	-1267.2	455.59	514.57	-1202.6	428.72	534.88	-1219.4	356.92	517.17	-1271.3	373.06	504.84	-1077.1	867.44	558.66	-1005.2	864.86	568.94	-1028.7	776.77	558.02	-1096.6	780.6	546.45	-731.59	516.52	232.22	-780.44	492.34	221.51	-758.6	433.05	227.56	-714.96	462.69	238.49	-838.14	828.68	198	-900.81	809.9	168.32	-867.33	743.33	186.69	-811.32	761.23	213.06
5	0.016723	-682.02	1773.6	294.79	-853.84	1555.9	565.69	-941.67	1557.6	113.86	-906.53	1088.1	546.3	-891.64	1026.8	194.38	-1117.8	1101.9	407.73	-1103.1	1085.1	279.53	-1129.4	1065.3	342.8	-905.89	1153.8	147.89	-931.38	1208.8	547.35	-942.83	944.27	151.16	-991.09	987.68	582.53	-1123.1	599.58	517.67	NaN	NaN	NaN	-777.58	570.35	381.07	-802.71	569.57	222.36	-1086.5	64.587	428.58	-414.32	204.7	264.5	-1163.5	53.191	381.01	-473.64	143.54	319.48	-495.46	121.89	192.51	-1193.6	48.115	514.21	-1281.8	155.62	485.14	-1269.6	158.98	383.68	-624.75	158.28	307.31	-648.45	140.11	240.15	-699.31	52.653	279.49	-1385.3	152.08	427.56	-676.68	30.804	246.88	-1385	126.64	461.27	-667.76	34.471	310.98	-1379.4	122.54	400.18	-1264.2	456.26	514.25	-1199.9	428.97	534.67	-1217.2	357.27	516.99	-1268.8	373.77	504.62	-1071.8	866.85	558.32	-999.94	863.95	568.76	-1023.9	775.94	557.81	-1091.7	780.1	546.14	-724.65	515.46	232.69	-773.34	491.01	222.03	-751.16	431.83	228.1	-707.7	461.75	238.97	-831.26	827.16	198.09	-893.91	808.34	168.4	-860.49	741.81	186.93	-804.49	759.71	213.32
